<mxfile host="app.diagrams.net" agent="Mozilla/5.0 (Windows NT 10.0; Win64; x64) AppleWebKit/537.36 (KHTML, like Gecko) Chrome/135.0.0.0 Safari/537.36 Edg/135.0.0.0" version="26.2.12">
  <diagram name="Page-1" id="-ZEGbbb4KFgpcQj7vi7V">
    <mxGraphModel dx="1105" dy="482" grid="1" gridSize="10" guides="1" tooltips="1" connect="1" arrows="1" fold="1" page="1" pageScale="1" pageWidth="850" pageHeight="1100" math="0" shadow="0">
      <root>
        <mxCell id="0" />
        <mxCell id="1" parent="0" />
        <mxCell id="Of06rXtQwyT8jazibSlD-1" value="" style="whiteSpace=wrap;html=1;aspect=fixed;fillColor=#dae8fc;strokeColor=#6c8ebf;" parent="1" vertex="1">
          <mxGeometry x="137.21" y="43" width="401" height="401" as="geometry" />
        </mxCell>
        <mxCell id="Of06rXtQwyT8jazibSlD-2" value="" style="whiteSpace=wrap;html=1;aspect=fixed;fillColor=#cce5ff;strokeColor=#36393d;" parent="1" vertex="1">
          <mxGeometry x="626" y="39" width="418" height="418" as="geometry" />
        </mxCell>
        <mxCell id="Of06rXtQwyT8jazibSlD-12" value="" style="rounded=1;whiteSpace=wrap;html=1;fillColor=#ffcccc;strokeColor=#36393d;" parent="1" vertex="1">
          <mxGeometry x="814.5" y="183.9" width="113" height="66.1" as="geometry" />
        </mxCell>
        <mxCell id="Of06rXtQwyT8jazibSlD-13" value="" style="image;aspect=fixed;html=1;points=[];align=center;fontSize=12;image=img/lib/azure2/power_platform/PowerAutomate.svg;" parent="1" vertex="1">
          <mxGeometry x="821.4300000000002" y="197" width="39.15" height="31" as="geometry" />
        </mxCell>
        <mxCell id="Of06rXtQwyT8jazibSlD-170" style="edgeStyle=orthogonalEdgeStyle;rounded=0;orthogonalLoop=1;jettySize=auto;html=1;exitX=0.5;exitY=1;exitDx=0;exitDy=0;" parent="1" source="Of06rXtQwyT8jazibSlD-14" edge="1">
          <mxGeometry relative="1" as="geometry">
            <mxPoint x="539.9999999999998" y="279.9999999999999" as="targetPoint" />
            <Array as="points">
              <mxPoint x="871" y="282" />
              <mxPoint x="691" y="282" />
              <mxPoint x="691" y="280" />
            </Array>
          </mxGeometry>
        </mxCell>
        <mxCell id="Of06rXtQwyT8jazibSlD-14" value="Workflows" style="text;html=1;align=center;verticalAlign=middle;whiteSpace=wrap;rounded=0;" parent="1" vertex="1">
          <mxGeometry x="841.4300000000002" y="229" width="60" height="20" as="geometry" />
        </mxCell>
        <mxCell id="Of06rXtQwyT8jazibSlD-15" value="" style="image;aspect=fixed;html=1;points=[];align=center;fontSize=12;image=img/lib/azure2/power_platform/PowerAutomate.svg;" parent="1" vertex="1">
          <mxGeometry x="850.6" y="196" width="41.67" height="33" as="geometry" />
        </mxCell>
        <mxCell id="Of06rXtQwyT8jazibSlD-16" value="" style="image;aspect=fixed;html=1;points=[];align=center;fontSize=12;image=img/lib/azure2/power_platform/PowerAutomate.svg;" parent="1" vertex="1">
          <mxGeometry x="882.6500000000001" y="196" width="39.31" height="31.13" as="geometry" />
        </mxCell>
        <mxCell id="Of06rXtQwyT8jazibSlD-17" value="" style="rounded=1;whiteSpace=wrap;html=1;fillColor=#ffcccc;strokeColor=#36393d;" parent="1" vertex="1">
          <mxGeometry x="634.52" y="186" width="120" height="70" as="geometry" />
        </mxCell>
        <mxCell id="Of06rXtQwyT8jazibSlD-19" value="POWER PLATFORM" style="text;html=1;align=center;verticalAlign=middle;whiteSpace=wrap;rounded=0;fontStyle=1" parent="1" vertex="1">
          <mxGeometry x="735.58" y="50" width="125" height="30" as="geometry" />
        </mxCell>
        <mxCell id="Of06rXtQwyT8jazibSlD-25" value="Custom Connectors" style="text;html=1;align=center;verticalAlign=middle;whiteSpace=wrap;rounded=0;" parent="1" vertex="1">
          <mxGeometry x="642" y="232.45000000000002" width="110" height="30" as="geometry" />
        </mxCell>
        <mxCell id="Of06rXtQwyT8jazibSlD-26" value="" style="sketch=0;aspect=fixed;pointerEvents=1;shadow=0;dashed=0;html=1;strokeColor=none;labelPosition=center;verticalLabelPosition=bottom;verticalAlign=top;align=center;fillColor=#00188D;shape=mxgraph.mscae.enterprise.connectors" parent="1" vertex="1">
          <mxGeometry x="642" y="213.11" width="32.35" height="22" as="geometry" />
        </mxCell>
        <mxCell id="Of06rXtQwyT8jazibSlD-27" value="" style="sketch=0;aspect=fixed;pointerEvents=1;shadow=0;dashed=0;html=1;strokeColor=none;labelPosition=center;verticalLabelPosition=bottom;verticalAlign=top;align=center;fillColor=#00188D;shape=mxgraph.mscae.enterprise.connectors" parent="1" vertex="1">
          <mxGeometry x="674.35" y="213.11" width="32.35" height="22" as="geometry" />
        </mxCell>
        <mxCell id="Of06rXtQwyT8jazibSlD-28" value="" style="sketch=0;aspect=fixed;pointerEvents=1;shadow=0;dashed=0;html=1;strokeColor=none;labelPosition=center;verticalLabelPosition=bottom;verticalAlign=top;align=center;fillColor=#00188D;shape=mxgraph.mscae.enterprise.connectors" parent="1" vertex="1">
          <mxGeometry x="706.7" y="213.11" width="32.35" height="22" as="geometry" />
        </mxCell>
        <mxCell id="Of06rXtQwyT8jazibSlD-29" value="AI WORKFLOW" style="text;html=1;align=center;verticalAlign=middle;whiteSpace=wrap;rounded=0;fontStyle=1" parent="1" vertex="1">
          <mxGeometry x="242" y="50" width="125" height="30" as="geometry" />
        </mxCell>
        <mxCell id="Of06rXtQwyT8jazibSlD-59" style="edgeStyle=orthogonalEdgeStyle;rounded=0;orthogonalLoop=1;jettySize=auto;html=1;exitX=1;exitY=0.5;exitDx=0;exitDy=0;entryX=0;entryY=0.25;entryDx=0;entryDy=0;" parent="1" source="Of06rXtQwyT8jazibSlD-54" edge="1">
          <mxGeometry relative="1" as="geometry">
            <mxPoint x="167" y="280.5" as="targetPoint" />
          </mxGeometry>
        </mxCell>
        <mxCell id="Of06rXtQwyT8jazibSlD-54" value="" style="whiteSpace=wrap;html=1;aspect=fixed;fillColor=#cce5ff;strokeColor=#36393d;" parent="1" vertex="1">
          <mxGeometry x="10" y="235.11" width="90" height="90" as="geometry" />
        </mxCell>
        <mxCell id="Of06rXtQwyT8jazibSlD-55" value="BU APPLICATIONS" style="text;html=1;align=center;verticalAlign=middle;whiteSpace=wrap;rounded=0;" parent="1" vertex="1">
          <mxGeometry x="20" y="265.11" width="70" height="30" as="geometry" />
        </mxCell>
        <mxCell id="Of06rXtQwyT8jazibSlD-76" value="HTTP POST&lt;div&gt;(webhook url)&lt;/div&gt;" style="text;html=1;align=center;verticalAlign=middle;whiteSpace=wrap;rounded=0;fontSize=10;" parent="1" vertex="1">
          <mxGeometry x="538.21" y="80" width="90" height="30" as="geometry" />
        </mxCell>
        <mxCell id="Of06rXtQwyT8jazibSlD-156" style="edgeStyle=orthogonalEdgeStyle;rounded=0;orthogonalLoop=1;jettySize=auto;html=1;exitX=1;exitY=0.5;exitDx=0;exitDy=0;entryX=0.75;entryY=0;entryDx=0;entryDy=0;" parent="1" source="Of06rXtQwyT8jazibSlD-84" target="Of06rXtQwyT8jazibSlD-89" edge="1">
          <mxGeometry relative="1" as="geometry" />
        </mxCell>
        <mxCell id="Of06rXtQwyT8jazibSlD-164" style="edgeStyle=orthogonalEdgeStyle;rounded=0;orthogonalLoop=1;jettySize=auto;html=1;exitX=0;exitY=0.75;exitDx=0;exitDy=0;entryX=1.021;entryY=0.645;entryDx=0;entryDy=0;entryPerimeter=0;" parent="1" source="Of06rXtQwyT8jazibSlD-84" target="Of06rXtQwyT8jazibSlD-135" edge="1">
          <mxGeometry relative="1" as="geometry">
            <mxPoint x="770" y="137" as="targetPoint" />
            <Array as="points" />
          </mxGeometry>
        </mxCell>
        <mxCell id="Of06rXtQwyT8jazibSlD-84" value="" style="rounded=1;whiteSpace=wrap;html=1;fillColor=#ffcccc;strokeColor=#36393d;" parent="1" vertex="1">
          <mxGeometry x="820" y="90.21" width="111" height="60" as="geometry" />
        </mxCell>
        <mxCell id="Of06rXtQwyT8jazibSlD-85" value="" style="image;aspect=fixed;html=1;points=[];align=center;fontSize=12;image=img/lib/azure2/power_platform/AIBuilder.svg;" parent="1" vertex="1">
          <mxGeometry x="826" y="98" width="30" height="30" as="geometry" />
        </mxCell>
        <mxCell id="Of06rXtQwyT8jazibSlD-86" value="" style="image;aspect=fixed;html=1;points=[];align=center;fontSize=12;image=img/lib/azure2/power_platform/AIBuilder.svg;" parent="1" vertex="1">
          <mxGeometry x="856" y="98" width="30" height="30" as="geometry" />
        </mxCell>
        <mxCell id="Of06rXtQwyT8jazibSlD-87" value="" style="image;aspect=fixed;html=1;points=[];align=center;fontSize=12;image=img/lib/azure2/power_platform/AIBuilder.svg;" parent="1" vertex="1">
          <mxGeometry x="886" y="98" width="30" height="30" as="geometry" />
        </mxCell>
        <mxCell id="Of06rXtQwyT8jazibSlD-88" value="AI BUILDER" style="text;html=1;align=center;verticalAlign=middle;whiteSpace=wrap;rounded=0;" parent="1" vertex="1">
          <mxGeometry x="840.08" y="122.16" width="70.42" height="30" as="geometry" />
        </mxCell>
        <mxCell id="Of06rXtQwyT8jazibSlD-89" value="" style="rounded=1;whiteSpace=wrap;html=1;fillColor=#ffcccc;strokeColor=#36393d;" parent="1" vertex="1">
          <mxGeometry x="888.58" y="368" width="120" height="60" as="geometry" />
        </mxCell>
        <mxCell id="Of06rXtQwyT8jazibSlD-90" value="" style="image;aspect=fixed;html=1;points=[];align=center;fontSize=12;image=img/lib/azure2/power_platform/Dataverse.svg;" parent="1" vertex="1">
          <mxGeometry x="897.58" y="376.11" width="35.04" height="27" as="geometry" />
        </mxCell>
        <mxCell id="Of06rXtQwyT8jazibSlD-93" value="" style="image;aspect=fixed;html=1;points=[];align=center;fontSize=12;image=img/lib/azure2/power_platform/Dataverse.svg;" parent="1" vertex="1">
          <mxGeometry x="932.62" y="376.11" width="35.04" height="27" as="geometry" />
        </mxCell>
        <mxCell id="Of06rXtQwyT8jazibSlD-94" value="" style="image;aspect=fixed;html=1;points=[];align=center;fontSize=12;image=img/lib/azure2/power_platform/Dataverse.svg;" parent="1" vertex="1">
          <mxGeometry x="967.73" y="376.11" width="35.04" height="27" as="geometry" />
        </mxCell>
        <mxCell id="Of06rXtQwyT8jazibSlD-95" value="DATA VERSE" style="text;html=1;align=center;verticalAlign=middle;whiteSpace=wrap;rounded=0;" parent="1" vertex="1">
          <mxGeometry x="913.5" y="400.5" width="79" height="30" as="geometry" />
        </mxCell>
        <mxCell id="Of06rXtQwyT8jazibSlD-135" value="" style="rounded=1;whiteSpace=wrap;html=1;fillColor=#ffcccc;strokeColor=#36393d;" parent="1" vertex="1">
          <mxGeometry x="637" y="90.21" width="120" height="70" as="geometry" />
        </mxCell>
        <mxCell id="Of06rXtQwyT8jazibSlD-136" value="Custom Connectors" style="text;html=1;align=center;verticalAlign=middle;whiteSpace=wrap;rounded=0;" parent="1" vertex="1">
          <mxGeometry x="638.48" y="124.32" width="110" height="25.68" as="geometry" />
        </mxCell>
        <mxCell id="Of06rXtQwyT8jazibSlD-137" value="" style="sketch=0;aspect=fixed;pointerEvents=1;shadow=0;dashed=0;html=1;strokeColor=none;labelPosition=center;verticalLabelPosition=bottom;verticalAlign=top;align=center;fillColor=#00188D;shape=mxgraph.mscae.enterprise.connectors" parent="1" vertex="1">
          <mxGeometry x="640.48" y="102.32000000000001" width="32.35" height="22" as="geometry" />
        </mxCell>
        <mxCell id="Of06rXtQwyT8jazibSlD-138" value="" style="sketch=0;aspect=fixed;pointerEvents=1;shadow=0;dashed=0;html=1;strokeColor=none;labelPosition=center;verticalLabelPosition=bottom;verticalAlign=top;align=center;fillColor=#00188D;shape=mxgraph.mscae.enterprise.connectors" parent="1" vertex="1">
          <mxGeometry x="672.83" y="104.25" width="32.35" height="22" as="geometry" />
        </mxCell>
        <mxCell id="Of06rXtQwyT8jazibSlD-139" value="" style="sketch=0;aspect=fixed;pointerEvents=1;shadow=0;dashed=0;html=1;strokeColor=none;labelPosition=center;verticalLabelPosition=bottom;verticalAlign=top;align=center;fillColor=#00188D;shape=mxgraph.mscae.enterprise.connectors" parent="1" vertex="1">
          <mxGeometry x="706.7" y="102.32000000000001" width="32.35" height="22" as="geometry" />
        </mxCell>
        <mxCell id="Of06rXtQwyT8jazibSlD-146" value="" style="rounded=1;whiteSpace=wrap;html=1;fillColor=#ffcccc;strokeColor=#36393d;" parent="1" vertex="1">
          <mxGeometry x="635" y="295.11" width="120" height="70" as="geometry" />
        </mxCell>
        <mxCell id="Of06rXtQwyT8jazibSlD-147" value="Custom Connectors" style="text;html=1;align=center;verticalAlign=middle;whiteSpace=wrap;rounded=0;" parent="1" vertex="1">
          <mxGeometry x="644.48" y="335.45000000000005" width="110" height="30" as="geometry" />
        </mxCell>
        <mxCell id="Of06rXtQwyT8jazibSlD-148" value="" style="sketch=0;aspect=fixed;pointerEvents=1;shadow=0;dashed=0;html=1;strokeColor=none;labelPosition=center;verticalLabelPosition=bottom;verticalAlign=top;align=center;fillColor=#00188D;shape=mxgraph.mscae.enterprise.connectors" parent="1" vertex="1">
          <mxGeometry x="644.48" y="316.11" width="32.35" height="22" as="geometry" />
        </mxCell>
        <mxCell id="Of06rXtQwyT8jazibSlD-149" value="" style="sketch=0;aspect=fixed;pointerEvents=1;shadow=0;dashed=0;html=1;strokeColor=none;labelPosition=center;verticalLabelPosition=bottom;verticalAlign=top;align=center;fillColor=#00188D;shape=mxgraph.mscae.enterprise.connectors" parent="1" vertex="1">
          <mxGeometry x="676.83" y="316.11" width="32.35" height="22" as="geometry" />
        </mxCell>
        <mxCell id="Of06rXtQwyT8jazibSlD-150" value="" style="sketch=0;aspect=fixed;pointerEvents=1;shadow=0;dashed=0;html=1;strokeColor=none;labelPosition=center;verticalLabelPosition=bottom;verticalAlign=top;align=center;fillColor=#00188D;shape=mxgraph.mscae.enterprise.connectors" parent="1" vertex="1">
          <mxGeometry x="709.1800000000001" y="316.11" width="32.35" height="22" as="geometry" />
        </mxCell>
        <mxCell id="Of06rXtQwyT8jazibSlD-158" style="edgeStyle=orthogonalEdgeStyle;rounded=0;orthogonalLoop=1;jettySize=auto;html=1;exitX=1;exitY=0.5;exitDx=0;exitDy=0;entryX=0.5;entryY=0;entryDx=0;entryDy=0;" parent="1" source="Of06rXtQwyT8jazibSlD-151" target="Of06rXtQwyT8jazibSlD-89" edge="1">
          <mxGeometry relative="1" as="geometry" />
        </mxCell>
        <mxCell id="Of06rXtQwyT8jazibSlD-151" value="" style="rounded=1;whiteSpace=wrap;html=1;fillColor=#ffcccc;strokeColor=#36393d;" parent="1" vertex="1">
          <mxGeometry x="815.58" y="292.45" width="113" height="67.55" as="geometry" />
        </mxCell>
        <mxCell id="Of06rXtQwyT8jazibSlD-152" value="" style="image;aspect=fixed;html=1;points=[];align=center;fontSize=12;image=img/lib/azure2/power_platform/CopilotStudio.svg;" parent="1" vertex="1">
          <mxGeometry x="821.43" y="303" width="31.64" height="29" as="geometry" />
        </mxCell>
        <mxCell id="Of06rXtQwyT8jazibSlD-153" value="" style="image;aspect=fixed;html=1;points=[];align=center;fontSize=12;image=img/lib/azure2/power_platform/CopilotStudio.svg;" parent="1" vertex="1">
          <mxGeometry x="851.01" y="306" width="31.64" height="29" as="geometry" />
        </mxCell>
        <mxCell id="Of06rXtQwyT8jazibSlD-154" value="" style="image;aspect=fixed;html=1;points=[];align=center;fontSize=12;image=img/lib/azure2/power_platform/CopilotStudio.svg;" parent="1" vertex="1">
          <mxGeometry x="886" y="306" width="31.64" height="29" as="geometry" />
        </mxCell>
        <mxCell id="Of06rXtQwyT8jazibSlD-155" value="Copilot" style="text;html=1;align=center;verticalAlign=middle;whiteSpace=wrap;rounded=0;" parent="1" vertex="1">
          <mxGeometry x="840.08" y="332.45" width="60" height="30" as="geometry" />
        </mxCell>
        <mxCell id="Of06rXtQwyT8jazibSlD-157" style="edgeStyle=orthogonalEdgeStyle;rounded=0;orthogonalLoop=1;jettySize=auto;html=1;exitX=1;exitY=0.5;exitDx=0;exitDy=0;entryX=0.633;entryY=-0.015;entryDx=0;entryDy=0;entryPerimeter=0;" parent="1" source="Of06rXtQwyT8jazibSlD-12" target="Of06rXtQwyT8jazibSlD-89" edge="1">
          <mxGeometry relative="1" as="geometry" />
        </mxCell>
        <mxCell id="Of06rXtQwyT8jazibSlD-165" value="" style="endArrow=classic;html=1;rounded=0;exitX=0.995;exitY=0.446;exitDx=0;exitDy=0;exitPerimeter=0;entryX=0;entryY=0.25;entryDx=0;entryDy=0;" parent="1" edge="1">
          <mxGeometry width="50" height="50" relative="1" as="geometry">
            <mxPoint x="538" y="114" as="sourcePoint" />
            <mxPoint x="637" y="113" as="targetPoint" />
          </mxGeometry>
        </mxCell>
        <mxCell id="Of06rXtQwyT8jazibSlD-169" style="edgeStyle=orthogonalEdgeStyle;rounded=0;orthogonalLoop=1;jettySize=auto;html=1;exitX=0;exitY=0.5;exitDx=0;exitDy=0;" parent="1" edge="1">
          <mxGeometry relative="1" as="geometry">
            <mxPoint x="634.48" y="137.15999999999997" as="sourcePoint" />
            <mxPoint x="536" y="137" as="targetPoint" />
          </mxGeometry>
        </mxCell>
        <mxCell id="Of06rXtQwyT8jazibSlD-174" value="" style="endArrow=classic;html=1;rounded=0;exitX=0.995;exitY=0.446;exitDx=0;exitDy=0;exitPerimeter=0;entryX=0;entryY=0.25;entryDx=0;entryDy=0;" parent="1" edge="1">
          <mxGeometry width="50" height="50" relative="1" as="geometry">
            <mxPoint x="538" y="217" as="sourcePoint" />
            <mxPoint x="637" y="216" as="targetPoint" />
          </mxGeometry>
        </mxCell>
        <mxCell id="Of06rXtQwyT8jazibSlD-175" value="" style="endArrow=classic;html=1;rounded=0;exitX=0.995;exitY=0.446;exitDx=0;exitDy=0;exitPerimeter=0;entryX=0;entryY=0.25;entryDx=0;entryDy=0;" parent="1" edge="1">
          <mxGeometry width="50" height="50" relative="1" as="geometry">
            <mxPoint x="539" y="334" as="sourcePoint" />
            <mxPoint x="638" y="333" as="targetPoint" />
          </mxGeometry>
        </mxCell>
        <mxCell id="Of06rXtQwyT8jazibSlD-178" value="" style="edgeStyle=orthogonalEdgeStyle;rounded=0;orthogonalLoop=1;jettySize=auto;html=1;" parent="1" edge="1">
          <mxGeometry relative="1" as="geometry">
            <mxPoint x="754" y="330" as="sourcePoint" />
            <mxPoint x="819" y="330" as="targetPoint" />
            <Array as="points">
              <mxPoint x="769" y="330" />
              <mxPoint x="769" y="330" />
            </Array>
          </mxGeometry>
        </mxCell>
        <mxCell id="Of06rXtQwyT8jazibSlD-179" value="" style="edgeStyle=orthogonalEdgeStyle;rounded=0;orthogonalLoop=1;jettySize=auto;html=1;" parent="1" edge="1">
          <mxGeometry relative="1" as="geometry">
            <mxPoint x="753" y="220" as="sourcePoint" />
            <mxPoint x="818" y="220" as="targetPoint" />
            <Array as="points">
              <mxPoint x="768" y="220" />
              <mxPoint x="768" y="220" />
            </Array>
          </mxGeometry>
        </mxCell>
        <mxCell id="Of06rXtQwyT8jazibSlD-180" value="" style="edgeStyle=orthogonalEdgeStyle;rounded=0;orthogonalLoop=1;jettySize=auto;html=1;" parent="1" edge="1">
          <mxGeometry relative="1" as="geometry">
            <mxPoint x="758" y="112" as="sourcePoint" />
            <mxPoint x="823" y="112" as="targetPoint" />
            <Array as="points">
              <mxPoint x="773" y="112" />
              <mxPoint x="773" y="112" />
            </Array>
          </mxGeometry>
        </mxCell>
        <mxCell id="Of06rXtQwyT8jazibSlD-182" value="RESPONSE" style="text;html=1;align=center;verticalAlign=middle;whiteSpace=wrap;rounded=0;fontSize=9;" parent="1" vertex="1">
          <mxGeometry x="560" y="130.20999999999998" width="50" height="30" as="geometry" />
        </mxCell>
        <mxCell id="Of06rXtQwyT8jazibSlD-183" style="edgeStyle=orthogonalEdgeStyle;rounded=0;orthogonalLoop=1;jettySize=auto;html=1;exitX=0;exitY=0.5;exitDx=0;exitDy=0;" parent="1" edge="1">
          <mxGeometry relative="1" as="geometry">
            <mxPoint x="636.48" y="352.15999999999997" as="sourcePoint" />
            <mxPoint x="538" y="352" as="targetPoint" />
          </mxGeometry>
        </mxCell>
        <mxCell id="Of06rXtQwyT8jazibSlD-185" style="edgeStyle=orthogonalEdgeStyle;rounded=0;orthogonalLoop=1;jettySize=auto;html=1;exitX=0;exitY=0.75;exitDx=0;exitDy=0;entryX=1.021;entryY=0.645;entryDx=0;entryDy=0;entryPerimeter=0;" parent="1" edge="1">
          <mxGeometry relative="1" as="geometry">
            <mxPoint x="816" y="348" as="sourcePoint" />
            <mxPoint x="756" y="348" as="targetPoint" />
            <Array as="points" />
          </mxGeometry>
        </mxCell>
        <mxCell id="Of06rXtQwyT8jazibSlD-186" value="" style="rounded=1;whiteSpace=wrap;html=1;fillColor=#ffcccc;strokeColor=#36393d;" parent="1" vertex="1">
          <mxGeometry x="634.48" y="380" width="120" height="70" as="geometry" />
        </mxCell>
        <mxCell id="Of06rXtQwyT8jazibSlD-187" value="Custom Connectors" style="text;html=1;align=center;verticalAlign=middle;whiteSpace=wrap;rounded=0;" parent="1" vertex="1">
          <mxGeometry x="640.48" y="416.45000000000005" width="110" height="30" as="geometry" />
        </mxCell>
        <mxCell id="Of06rXtQwyT8jazibSlD-188" value="" style="sketch=0;aspect=fixed;pointerEvents=1;shadow=0;dashed=0;html=1;strokeColor=none;labelPosition=center;verticalLabelPosition=bottom;verticalAlign=top;align=center;fillColor=#00188D;shape=mxgraph.mscae.enterprise.connectors" parent="1" vertex="1">
          <mxGeometry x="643.48" y="394.11" width="32.35" height="22" as="geometry" />
        </mxCell>
        <mxCell id="Of06rXtQwyT8jazibSlD-189" value="" style="sketch=0;aspect=fixed;pointerEvents=1;shadow=0;dashed=0;html=1;strokeColor=none;labelPosition=center;verticalLabelPosition=bottom;verticalAlign=top;align=center;fillColor=#00188D;shape=mxgraph.mscae.enterprise.connectors" parent="1" vertex="1">
          <mxGeometry x="675.83" y="394.11" width="32.35" height="22" as="geometry" />
        </mxCell>
        <mxCell id="Of06rXtQwyT8jazibSlD-190" value="" style="sketch=0;aspect=fixed;pointerEvents=1;shadow=0;dashed=0;html=1;strokeColor=none;labelPosition=center;verticalLabelPosition=bottom;verticalAlign=top;align=center;fillColor=#00188D;shape=mxgraph.mscae.enterprise.connectors" parent="1" vertex="1">
          <mxGeometry x="712.1800000000001" y="395.11" width="32.35" height="22" as="geometry" />
        </mxCell>
        <mxCell id="Of06rXtQwyT8jazibSlD-199" style="edgeStyle=orthogonalEdgeStyle;rounded=0;orthogonalLoop=1;jettySize=auto;html=1;exitX=0.5;exitY=0;exitDx=0;exitDy=0;entryX=1;entryY=0.25;entryDx=0;entryDy=0;" parent="1" source="Of06rXtQwyT8jazibSlD-191" target="Of06rXtQwyT8jazibSlD-187" edge="1">
          <mxGeometry relative="1" as="geometry" />
        </mxCell>
        <mxCell id="Of06rXtQwyT8jazibSlD-191" value="" style="whiteSpace=wrap;html=1;aspect=fixed;fillColor=#cce5ff;strokeColor=#36393d;" parent="1" vertex="1">
          <mxGeometry x="815.58" y="490" width="90" height="90" as="geometry" />
        </mxCell>
        <mxCell id="Of06rXtQwyT8jazibSlD-192" value="External APIs" style="text;html=1;align=center;verticalAlign=middle;whiteSpace=wrap;rounded=0;" parent="1" vertex="1">
          <mxGeometry x="825.58" y="520" width="70" height="30" as="geometry" />
        </mxCell>
        <mxCell id="Of06rXtQwyT8jazibSlD-193" style="edgeStyle=orthogonalEdgeStyle;rounded=0;orthogonalLoop=1;jettySize=auto;html=1;entryX=0.622;entryY=0.007;entryDx=0;entryDy=0;entryPerimeter=0;" parent="1" target="Of06rXtQwyT8jazibSlD-191" edge="1">
          <mxGeometry relative="1" as="geometry">
            <mxPoint x="760" y="400" as="sourcePoint" />
            <Array as="points">
              <mxPoint x="751" y="400" />
              <mxPoint x="872" y="400" />
            </Array>
          </mxGeometry>
        </mxCell>
        <mxCell id="Of06rXtQwyT8jazibSlD-195" value="" style="endArrow=classic;html=1;rounded=0;exitX=0.995;exitY=0.446;exitDx=0;exitDy=0;exitPerimeter=0;entryX=0;entryY=0.25;entryDx=0;entryDy=0;" parent="1" edge="1">
          <mxGeometry width="50" height="50" relative="1" as="geometry">
            <mxPoint x="539" y="403" as="sourcePoint" />
            <mxPoint x="638" y="402" as="targetPoint" />
          </mxGeometry>
        </mxCell>
        <mxCell id="Of06rXtQwyT8jazibSlD-197" style="edgeStyle=orthogonalEdgeStyle;rounded=0;orthogonalLoop=1;jettySize=auto;html=1;exitX=0;exitY=0.5;exitDx=0;exitDy=0;" parent="1" edge="1">
          <mxGeometry relative="1" as="geometry">
            <mxPoint x="636.48" y="418.15999999999997" as="sourcePoint" />
            <mxPoint x="538" y="418" as="targetPoint" />
          </mxGeometry>
        </mxCell>
      </root>
    </mxGraphModel>
  </diagram>
</mxfile>
